<svg width="230" height="66" viewBox="0 0 230 66" fill="none" xmlns="http://www.w3.org/2000/svg">
<g clip-path="url(#clip0_137_1329)">
<path d="M64.8581 46H62.3132C52.8528 46 44.8493 38.9545 43.2817 29.2576C42.6547 25.3825 41.9355 21.9154 41.1241 18.8747C39.3538 21.9895 37.7862 26.4579 36.5322 32.0758L35.9974 34.5047H28.6025L28.0677 32.0943C26.8137 26.5321 25.2646 22.0822 23.5127 18.9674C22.7197 21.9895 22.0005 25.4381 21.3735 29.2761C19.806 38.973 11.8024 46.0186 2.34205 46.0186H0V43.6453C0 43.6453 0.645446 35.3761 2.95061 26.8843C6.17784 15.0182 10.9726 9.0109 17.2242 9.0109C18.7548 9.0109 20.1932 9.36317 21.5394 10.0863C24.3979 3.393 28.0124 0.0185547 32.3276 0.0185547C36.6429 0.0185547 40.2574 3.37446 43.1158 10.0492C44.4804 9.34463 45.9189 9.0109 47.4495 9.0109C53.7749 9.0109 58.6065 15.0367 61.7968 26.9029C63.9913 35.098 64.6368 43.1447 64.6552 43.4785L64.8581 46.0371V46ZM44.7939 14.5917C46.0295 18.4668 47.0807 23.1205 47.9474 28.5159C48.9801 34.9682 53.738 39.8815 59.6761 41.0125C59.3073 38.0089 58.5696 33.0028 57.2418 28.0524C55.8034 22.6941 52.6131 13.7203 47.4495 13.7203C46.5459 13.7203 45.6422 14.0169 44.7939 14.5732V14.5917ZM17.2242 13.7203C12.1713 13.7203 8.96248 22.7126 7.50561 28.0524C6.1594 32.9843 5.4033 37.9903 5.01604 40.994C10.9541 39.8444 15.6936 34.9496 16.7447 28.4974C17.6115 23.102 18.6626 18.4668 19.8797 14.5917C19.013 14.0169 18.1278 13.7203 17.2242 13.7203ZM25.3384 13.2382C28.1414 16.5941 30.4466 21.9154 32.2354 29.202H32.3829C34.1717 21.8783 36.4769 16.52 39.3169 13.1641C37.2514 7.73157 34.8356 4.72795 32.3276 4.72795C29.8196 4.72795 27.3853 7.75011 25.3199 13.2197L25.3384 13.2382Z" fill="#FFF7E8"/>
<path d="M226.607 20.7844C225.961 20.7844 225.389 20.6361 224.892 20.3209C224.375 20.0242 223.969 19.5978 223.674 19.0786C223.361 18.541 223.213 17.9662 223.213 17.3358C223.213 16.7054 223.361 16.0936 223.674 15.5744C223.988 15.0553 224.394 14.6474 224.892 14.3322C225.408 14.017 225.98 13.8687 226.607 13.8687C227.234 13.8687 227.805 14.017 228.322 14.3322C228.838 14.6474 229.244 15.0553 229.539 15.5744C229.834 16.0936 230 16.6683 230 17.3358C230 18.0033 229.852 18.541 229.539 19.0786C229.244 19.6163 228.82 20.0242 228.322 20.3209C227.805 20.6175 227.234 20.7844 226.607 20.7844ZM226.588 20.0984C227.123 20.0984 227.584 19.9872 227.99 19.7461C228.395 19.5051 228.709 19.1714 228.93 18.7635C229.151 18.337 229.281 17.8735 229.281 17.3358C229.281 16.7981 229.17 16.3161 228.93 15.9082C228.709 15.5003 228.377 15.1665 227.99 14.9255C227.602 14.6845 227.123 14.5547 226.588 14.5547C226.053 14.5547 225.629 14.6845 225.223 14.9255C224.818 15.1665 224.504 15.5003 224.283 15.9082C224.062 16.3161 223.933 16.7981 223.933 17.3358C223.933 17.8735 224.043 18.3185 224.283 18.7449C224.523 19.1714 224.836 19.5051 225.223 19.7461C225.629 19.9872 226.072 20.1169 226.588 20.1169V20.0984ZM225.445 18.9118V15.7413H226.791C227.123 15.7413 227.381 15.834 227.584 16.0009C227.787 16.1677 227.861 16.4088 227.861 16.724C227.861 16.9094 227.805 17.0762 227.713 17.2246C227.621 17.3729 227.473 17.5027 227.307 17.5954L228.045 18.9118H227.289L226.643 17.7437H226.146V18.9118H225.445ZM226.662 16.279H226.146V17.2431H226.643C226.994 17.2431 227.16 17.0762 227.16 16.761C227.16 16.6127 227.123 16.5015 227.031 16.4088C226.939 16.3161 226.828 16.279 226.662 16.279Z" fill="#FFF7E8"/>
<path d="M98.4764 13.7944C95.4705 13.7944 92.9993 15.0552 91.5978 17.2616C90.2147 15.0181 87.7989 13.7944 84.7745 13.7944C79.4634 13.7944 76.2915 17.4099 76.2915 23.4542V37.3599H80.8465V23.4542C80.8465 20.0427 82.3218 18.1515 84.9774 18.1515C87.7804 18.1515 89.3111 20.154 89.3111 23.788V37.3599H93.8661V23.788C93.8661 20.2096 95.4705 18.1515 98.2551 18.1515C101.04 18.1515 102.386 20.0242 102.386 23.4542V37.3599H106.941V23.4542C106.941 17.4841 103.695 13.7944 98.458 13.7944H98.4764Z" fill="#FFF7E8"/>
<path d="M128.499 29.5172C126.876 32.2056 124.294 33.6704 121.252 33.6704C117.084 33.6704 114.133 30.8707 113.764 26.6804H131.855V26.3467C131.929 22.416 130.804 19.1528 128.628 16.9465C126.692 14.9811 123.962 13.8872 120.938 13.8872C114.373 13.8872 109.431 19.0601 109.431 25.9203C109.431 32.7804 114.373 37.7864 121.196 37.7864C127.116 37.7864 130.362 34.0783 131.763 31.8719L131.929 31.5938L128.683 29.1835L128.499 29.4987V29.5172ZM120.901 17.8735C124.202 17.8735 126.581 19.8203 127.319 23.0835H114.059C114.981 19.913 117.637 17.8735 120.92 17.8735H120.901Z" fill="#FFF7E8"/>
<path d="M151.919 12.8675C151.919 14.1654 151.938 15.4262 151.975 16.724C150.223 14.9441 147.586 13.8873 144.709 13.8873C138.218 13.8873 133.331 19.0231 133.331 25.8461C133.331 32.6692 138.218 37.805 144.709 37.805C147.752 37.805 150.555 36.6184 152.27 34.6345L152.307 37.3786H156.474V6.73047H151.919V12.8675ZM145.133 33.4479C140.928 33.4479 137.886 30.2403 137.886 25.8276C137.886 21.4149 140.928 18.1517 145.133 18.1517C149.338 18.1517 152.214 21.2295 152.214 25.8276C152.214 30.4258 149.374 33.4479 145.133 33.4479Z" fill="#FFF7E8"/>
<path d="M176.336 15.3335V14.2952H159.868L159.056 18.541H169.531L158.411 36.2847V37.3601H175.653L176.409 33.1142H165.234L176.336 15.3335Z" fill="#FFF7E8"/>
<path d="M195.865 29.5172C194.242 32.2056 191.661 33.6704 188.618 33.6704C184.45 33.6704 181.499 30.8707 181.131 26.6804H199.221V26.3467C199.295 22.416 198.17 19.1528 195.994 16.9465C194.058 14.9811 191.329 13.8872 188.304 13.8872C181.739 13.8872 176.797 19.0601 176.797 25.9203C176.797 32.7804 181.739 37.7864 188.562 37.7864C194.482 37.7864 197.728 34.0783 199.129 31.8719L199.295 31.5938L196.05 29.1835L195.865 29.4987V29.5172ZM188.267 17.8735C191.568 17.8735 193.947 19.8203 194.685 23.0835H181.426C182.348 19.913 185.003 17.8735 188.286 17.8735H188.267Z" fill="#FFF7E8"/>
<path d="M219.949 29.1834L219.765 29.4986C218.142 32.1871 215.56 33.6518 212.518 33.6518C208.35 33.6518 205.399 30.8521 205.03 26.6619H223.121V26.3281C223.195 22.3975 222.07 19.1343 219.894 16.9279C217.958 14.9626 215.229 13.8687 212.204 13.8687C205.639 13.8687 200.697 19.0416 200.697 25.9017C200.697 32.7618 205.639 37.7679 212.462 37.7679C218.382 37.7679 221.628 34.0597 223.029 31.8533L223.195 31.5752L219.949 29.1649V29.1834ZM212.167 17.8735C215.468 17.8735 217.847 19.8203 218.585 23.0835H205.326C206.248 19.913 208.903 17.8735 212.186 17.8735H212.167Z" fill="#FFF7E8"/>
</g>
<path d="M132.627 60.14C131.843 60.14 131.092 59.986 130.373 59.678C129.654 59.37 129.024 58.9267 128.483 58.348L129.281 57.466C129.794 57.998 130.331 58.3947 130.891 58.656C131.46 58.9173 132.058 59.048 132.683 59.048C133.178 59.048 133.612 58.9733 133.985 58.824C134.368 58.6747 134.666 58.4647 134.881 58.194C135.096 57.914 135.203 57.6013 135.203 57.256C135.203 56.78 135.035 56.416 134.699 56.164C134.372 55.912 133.826 55.7253 133.061 55.604L131.549 55.352C130.625 55.1933 129.939 54.9087 129.491 54.498C129.052 54.0873 128.833 53.5367 128.833 52.846C128.833 52.2953 128.978 51.81 129.267 51.39C129.566 50.97 129.976 50.648 130.499 50.424C131.031 50.1907 131.647 50.074 132.347 50.074C133.047 50.074 133.733 50.1907 134.405 50.424C135.086 50.648 135.702 50.97 136.253 51.39L135.539 52.356C134.475 51.544 133.392 51.138 132.291 51.138C131.843 51.138 131.451 51.208 131.115 51.348C130.779 51.4787 130.518 51.6653 130.331 51.908C130.144 52.1413 130.051 52.4213 130.051 52.748C130.051 53.1773 130.196 53.5087 130.485 53.742C130.774 53.966 131.255 54.1293 131.927 54.232L133.411 54.47C134.466 54.6473 135.236 54.9507 135.721 55.38C136.206 55.8093 136.449 56.4067 136.449 57.172C136.449 57.76 136.286 58.278 135.959 58.726C135.642 59.174 135.194 59.524 134.615 59.776C134.046 60.0187 133.383 60.14 132.627 60.14ZM140.949 60V50.2H145.331C145.975 50.2 146.535 50.3213 147.011 50.564C147.487 50.7973 147.856 51.1333 148.117 51.572C148.388 52.0013 148.523 52.5007 148.523 53.07C148.523 53.6487 148.388 54.1527 148.117 54.582C147.856 55.0113 147.482 55.3473 146.997 55.59C146.521 55.8327 145.966 55.954 145.331 55.954H142.209V60H140.949ZM142.209 54.876H145.219C145.844 54.876 146.339 54.7173 146.703 54.4C147.076 54.0733 147.263 53.6347 147.263 53.084C147.263 52.5427 147.076 52.1133 146.703 51.796C146.339 51.4787 145.844 51.32 145.219 51.32H142.209V54.876ZM155.458 60V56.052L151.538 50.2H153.008L156.13 54.946L159.238 50.2H160.638L156.718 56.094V60H155.458Z" fill="#FFF7E8"/>
<defs>
<clipPath id="clip0_137_1329">
<rect width="230" height="46" fill="white"/>
</clipPath>
</defs>
</svg>
